<svg class="svg" xmlns="http://www.w3.org/2000/svg" viewBox="0 0 1920 1080">
  <svg id="dvd" preserveAspectRatio="none" height="100%" width="100%" fill="#0ff">
    <path fill="inherit" d="M 91.2 12.7 C 91.2 12.7 80.2 26.3 80.8 27.1 C 81.6 26.3 76.8 12.5 76.8 12.5 S 75.8 9.7 72.8 0.1 H 13.8 L 11.8 8.9 H 30.8 C 40.8 8.9 46.8 13.1 45.2 20.3 C 43.4 28.3 34.8 31.7 25.4 31.7 H 22 L 26.4 12.3 H 11 L 4.4 40.5 H 26.4 C 42.8 40.5 58.6 31.7 61.4 20.3 C 61.8 18.3 61.8 12.9 60.6 9.9 C 60.4 9.5 60.2 8.9 60.6 8.9 C 60.8 8.9 61 9.1 61 9.1 L 75.2 49.9 L 110.8 8.9 H 129.4 C 139.4 8.9 145.4 13.1 143.8 20.3 C 142 28.3 133.2 31.7 124 31.7 H 120.4 L 124.8 12.5 H 109.4 L 102.8 40.7 H 124.8 C 141.2 40.7 157 31.9 159.6 20.5 C 162.2 9.1 150.8 0.3 134 0.3 H 101.2 C 92.8 10.7 91.2 12.7 91.2 12.7 L 91.2 12.7 Z M 75.6 50.3 C 33.8 50.3 0 55.3 0 61.3 C 0 67.3 33.8 72.3 75.6 72.3 C 117.4 72.3 151.2 67.5 151.2 61.3 C 151.2 55.3 117.4 50.3 75.6 50.3 Z M 72.8 65.1 C 63.2 65.1 55.6 63.5 55.6 61.5 C 55.6 59.5 63.2 57.9 72.8 57.9 C 82.4 57.9 90 59.5 90 61.5 C 90 63.5 82.4 65.1 72.8 65.1 Z" />

    <animate id="xAnim" attributeName="x" dur="9s" values="0%;91.5%;0%" repeatCount="indefinite" />
    <animate id="yAnim" attributeName="y" dur="10s" values="0%;92%;0%" repeatCount="indefinite" />

    <animate attributeName="fill" values="#0ff;#ff0;#0ff" keyTimes="0;0.5;1" dur="9s" repeatCount="indefinite" />
    <animate attributeName="fill" values="#0ff;#f0f;#0ff" keyTimes="0;0.5;1" dur="10s" repeatCount="indefinite" />
  </svg>
</svg>
